<?xml version="1.0" encoding="UTF-8" standalone="no"?>
<svg
   xmlns:dc="http://purl.org/dc/elements/1.1/"
   xmlns:cc="http://creativecommons.org/ns#"
   xmlns:rdf="http://www.w3.org/1999/02/22-rdf-syntax-ns#"
   xmlns:svg="http://www.w3.org/2000/svg"
   xmlns="http://www.w3.org/2000/svg"
   width="54.251198mm"
   height="15.965396mm"
   viewBox="0 0 54.251198 15.965396"
   version="1.1"
   id="svg1144">
  <defs
     id="defs1138" />
  <metadata
     id="metadata1141">
    <rdf:RDF>
      <cc:Work
         rdf:about="">
        <dc:format>image/svg+xml</dc:format>
        <dc:type
           rdf:resource="http://purl.org/dc/dcmitype/StillImage" />
        <dc:title></dc:title>
      </cc:Work>
    </rdf:RDF>
  </metadata>
  <g
     id="layer1"
     transform="translate(-100.63035,-123.55302)">
    <text
       xml:space="preserve"
       style="font-style:normal;font-variant:normal;font-weight:normal;font-stretch:normal;font-size:3.2379px;line-height:1.25;font-family:Constantia;-inkscape-font-specification:'Constantia, Normal';font-variant-ligatures:normal;font-variant-caps:normal;font-variant-numeric:normal;font-variant-east-asian:normal;letter-spacing:0px;word-spacing:0px;fill:#000000;fill-opacity:1;stroke:none;stroke-width:0.324553"
       x="109.16335"
       y="138.9003"
       id="text1628"
       transform="scale(1.0012696,0.99873201)"><tspan
         id="tspan1626"
         x="109.16335"
         y="138.9003"
         style="font-style:normal;font-variant:normal;font-weight:normal;font-stretch:normal;font-size:3.2379px;font-family:Constantia;-inkscape-font-specification:'Constantia, Normal';font-variant-ligatures:normal;font-variant-caps:normal;font-variant-numeric:normal;font-variant-east-asian:normal;fill:#000000;stroke-width:0.324553">din hjälp till trygghet</tspan></text>
    <g
       id="g1636"
       transform="matrix(0.61266381,0,0,0.61111111,80.84548,81.670882)"
       style="stroke-width:1.63429">
      <path
         id="path1630"
         style="color:#000000;font-style:normal;font-variant:normal;font-weight:normal;font-stretch:normal;font-size:medium;line-height:normal;font-family:sans-serif;font-variant-ligatures:normal;font-variant-position:normal;font-variant-caps:normal;font-variant-numeric:normal;font-variant-alternates:normal;font-variant-east-asian:normal;font-feature-settings:normal;font-variation-settings:normal;text-indent:0;text-align:start;text-decoration:none;text-decoration-line:none;text-decoration-style:solid;text-decoration-color:#000000;letter-spacing:normal;word-spacing:normal;text-transform:none;writing-mode:lr-tb;direction:ltr;text-orientation:mixed;dominant-baseline:auto;baseline-shift:baseline;text-anchor:start;white-space:normal;shape-padding:0;shape-margin:0;inline-size:0;clip-rule:nonzero;display:inline;overflow:visible;visibility:visible;opacity:1;isolation:auto;mix-blend-mode:normal;color-interpolation:sRGB;color-interpolation-filters:linearRGB;solid-color:#000000;solid-opacity:1;vector-effect:none;fill:#aa0000;fill-opacity:1;fill-rule:nonzero;stroke:none;stroke-width:0.112843px;stroke-linecap:butt;stroke-linejoin:miter;stroke-miterlimit:4;stroke-dasharray:none;stroke-dashoffset:0;stroke-opacity:1;color-rendering:auto;image-rendering:auto;shape-rendering:auto;text-rendering:auto;enable-background:accumulate;stop-color:#000000;stop-opacity:1"
         d="m 46.071113,68.534829 c -0.249494,-0.0029 -0.499532,0.009 -0.748735,0.03453 -2.635425,0.270684 -5.16773,2.088329 -5.757084,4.428188 -1.395867,-2.486735 -7.213169,-1.963642 -7.271403,3.104567 -0.02819,2.457605 0.802376,3.611036 2.423455,4.413424 1.62707,0.493076 1.642402,0.493678 2.572367,0.403037 -0.687165,-0.347071 -1.237538,-0.694287 -1.237538,-0.694287 -1.237433,-0.868533 -2.237432,-2.187447 -2.217182,-4.061386 0.01138,-1.033445 0.914411,-2.188182 2.12238,-2.556629 1.207995,-0.368463 2.720785,0.04074 3.962946,2.141815 l 0.02958,0.0505 0.01795,-0.05603 c 0.793747,-2.485285 2.902501,-3.984522 4.88388,-4.241687 0.990695,-0.128572 1.948526,0.05305 2.695289,0.575434 0.746497,0.522227 1.283811,1.385141 1.432322,2.625967 0.107948,1.37605 -0.483036,2.542323 -1.420061,3.631585 -0.937038,1.089244 -2.219484,2.098885 -3.486357,3.155528 -1.26686,1.05666 -2.518198,2.16047 -3.39302,3.441586 -0.870032,1.274111 -1.366631,2.725124 -1.131736,4.473906 -0.001,0.0063 -0.0025,0.01302 -0.0025,0.01858 l 0.0063,0.001 c 5.18e-4,0.0038 5.18e-4,0.0063 10e-4,0.0076 l 0.02604,-0.0038 0.03413,0.0063 c 0.396754,-1.970412 1.452686,-3.398434 2.790623,-4.571958 1.337936,-1.173522 2.957828,-2.090966 4.476735,-3.035391 1.518921,-0.944407 2.937414,-1.915777 3.870154,-3.202873 0.932752,-1.287096 1.376098,-2.890259 0.945507,-5.083737 v -8e-6 -3.9e-4 c -0.475945,-1.966531 -1.404033,-3.279124 -2.546526,-4.064356 -0.856885,-0.588924 -1.833247,-0.881195 -2.828783,-0.932812 -0.08292,-0.0042 -0.166069,-0.007 -0.249229,-0.008 z" />
      <path
         id="path1632"
         style="opacity:1;fill:#550000;fill-opacity:1;stroke:none;stroke-width:0.445849;stroke-linecap:round;stroke-linejoin:round;stroke-miterlimit:4;stroke-dasharray:none"
         d="m 44.528549,69.079504 a 5.1133149,5.132275 0 0 0 -2.335776,0.577226 c -1.118653,0.699201 -2.013683,1.679555 -2.45463,2.813265 a 5.1133149,5.132275 0 0 0 -0.303858,1.742012 5.1133149,5.132275 0 0 0 0.08578,0.93276 c 0.13584,0.184484 0.269963,0.382276 0.400492,0.603064 l 0.02946,0.05064 0.01809,-0.05581 c 0.793748,-2.485285 2.902043,-3.984436 4.883423,-4.241601 0.990695,-0.128572 1.94868,0.05277 2.695442,0.575158 0.746496,0.522228 1.28396,1.385371 1.43247,2.626197 0.107948,1.37605 -0.483044,2.542041 -1.420069,3.631303 -0.02124,0.02469 -0.04507,0.04877 -0.06666,0.07338 a 5.1133149,5.132275 0 0 0 2.168342,-4.195093 5.1133149,5.132275 0 0 0 -5.113382,-5.132503 5.1133149,5.132275 0 0 0 -0.01912,0 z" />
      <path
         id="path1634"
         style="opacity:1;fill:#550000;fill-opacity:1;stroke:none;stroke-width:0.322143;stroke-linecap:round;stroke-linejoin:round;stroke-miterlimit:4;stroke-dasharray:none"
         d="m 36.488729,73.44978 a 3.623456,3.7810934 0 0 0 -3.623553,3.781165 3.623456,3.7810934 0 0 0 1.265039,2.870109 c 0.262049,0.210251 0.541369,0.396003 0.831474,0.558622 a 3.623456,3.7810934 0 0 0 1.52704,0.351916 3.623456,3.7810934 0 0 0 0.800984,-0.09302 c -0.419545,-0.188382 -0.840716,-0.415935 -1.237649,-0.694532 -1.237436,-0.868532 -2.237172,-2.187311 -2.21692,-4.06125 0.01138,-1.033445 0.914381,-2.187986 2.12235,-2.556433 0.404619,-0.123417 0.843626,-0.156748 1.295013,-0.07131 a 3.623456,3.7810934 0 0 0 -0.763778,-0.08527 z m 1.732709,0.460437 c 0.409109,0.245199 0.816226,0.60583 1.205611,1.107943 a 3.623456,3.7810934 0 0 0 -1.205611,-1.107943 z" />
    </g>
    <path
       id="path1638"
       style="color:#000000;font-style:normal;font-variant:normal;font-weight:normal;font-stretch:normal;font-size:medium;line-height:normal;font-family:sans-serif;font-variant-ligatures:normal;font-variant-position:normal;font-variant-caps:normal;font-variant-numeric:normal;font-variant-alternates:normal;font-variant-east-asian:normal;font-feature-settings:normal;font-variation-settings:normal;text-indent:0;text-align:start;text-decoration:none;text-decoration-line:none;text-decoration-style:solid;text-decoration-color:#000000;letter-spacing:normal;word-spacing:normal;text-transform:none;writing-mode:lr-tb;direction:ltr;text-orientation:mixed;dominant-baseline:auto;baseline-shift:baseline;text-anchor:start;white-space:normal;shape-padding:0;shape-margin:0;inline-size:0;clip-rule:nonzero;display:inline;overflow:visible;visibility:visible;isolation:auto;mix-blend-mode:normal;color-interpolation:sRGB;color-interpolation-filters:linearRGB;solid-color:#000000;solid-opacity:1;vector-effect:none;fill:#006680;fill-opacity:1;fill-rule:nonzero;stroke:none;stroke-width:0.991208;stroke-linecap:round;stroke-linejoin:round;stroke-miterlimit:4;stroke-dasharray:none;stroke-dashoffset:0;stroke-opacity:1;color-rendering:auto;image-rendering:auto;shape-rendering:auto;text-rendering:auto;enable-background:accumulate;stop-color:#000000"
       d="m 112.63946,125.48039 c 0.0931,0.18788 0.17759,0.38991 0.25265,0.60634 h 39.34264 c 1.13557,0 2.04019,0.90232 2.04019,2.03502 v 3.79655 c 0,1.1327 -0.90462,2.03628 -2.04019,2.03628 H 140.7772 v 0.60508 h 11.45755 c 1.4615,0 2.6468,-1.18357 2.6468,-2.64136 v -3.79655 c 0,-1.4578 -1.1853,-2.64136 -2.6468,-2.64136 z m -3.34744,6.80235 c -0.20296,0.1239 -0.40439,0.25074 -0.60661,0.37769 v 0.51539 c 0,1.45779 1.1853,1.38384 2.6468,1.38384 h 27.17257 v -0.60508 h -27.17257 c -1.13558,0 -2.04019,0.35393 -2.04019,-0.77876 z" />
    <text
       xml:space="preserve"
       style="font-style:normal;font-variant:normal;font-weight:normal;font-stretch:normal;font-size:9.53234px;line-height:1.25;font-family:Gabriola;-inkscape-font-specification:'Gabriola, Normal';font-variant-ligatures:normal;font-variant-caps:normal;font-variant-numeric:normal;font-variant-east-asian:normal;letter-spacing:0px;word-spacing:0px;fill:#006680;fill-opacity:1;stroke:none;stroke-width:0.324553"
       x="113.50699"
       y="133.26807"
       id="text1642"
       transform="scale(1.0012696,0.99873201)"><tspan
         id="tspan1640"
         x="113.50699"
         y="133.26807"
         style="font-style:normal;font-variant:normal;font-weight:normal;font-stretch:normal;font-size:9.53234px;font-family:Gabriola;-inkscape-font-specification:'Gabriola, Normal';font-variant-ligatures:normal;font-variant-caps:normal;font-variant-numeric:normal;font-variant-east-asian:normal;fill:#006680;stroke-width:0.324553">Pensionsfrid</tspan></text>
  </g>
</svg>
